REM DIRINDEX 1\2,1\3,1\4,1\5,1\6
REM DIRNAME cjc091,folder01,folder02,folder03,folder04,folder05
TITLE ""
FILE "CD2-05.mp3" MP3
  TRACK 01 AUDIO
    TITLE "6:cjc091_1615"
    INDEX 01 00:00:00
  TRACK 02 AUDIO
    TITLE "0:"
    INDEX 01 00:02:08
  TRACK 03 AUDIO
    TITLE "2:cjc091_1616"
    INDEX 01 00:03:33
  TRACK 04 AUDIO
    TITLE "0:"
    INDEX 01 00:04:42
  TRACK 05 AUDIO
    TITLE "3:cjc091_1617"
    INDEX 01 00:04:54
  TRACK 06 AUDIO
    TITLE "0:"
    INDEX 01 00:05:71
  TRACK 07 AUDIO
    TITLE "4:cjc091_1618"
    INDEX 01 00:06:10
  TRACK 08 AUDIO
    TITLE "0:"
    INDEX 01 00:09:73
  TRACK 09 AUDIO
    TITLE "2:cjc091_1619"
    INDEX 01 00:11:11
  TRACK 10 AUDIO
    TITLE "0:"
    INDEX 01 00:12:28
  TRACK 11 AUDIO
    TITLE "3:cjc091_1620"
    INDEX 01 00:12:44
  TRACK 12 AUDIO
    TITLE "0:"
    INDEX 01 00:13:57
  TRACK 13 AUDIO
    TITLE "4:cjc091_1621"
    INDEX 01 00:14:00
  TRACK 14 AUDIO
    TITLE "0:"
    INDEX 01 00:18:44
  TRACK 15 AUDIO
    TITLE "2:cjc091_1622"
    INDEX 01 00:19:58
  TRACK 16 AUDIO
    TITLE "0:"
    INDEX 01 00:21:23
  TRACK 17 AUDIO
    TITLE "3:cjc091_1623"
    INDEX 01 00:21:27
  TRACK 18 AUDIO
    TITLE "0:"
    INDEX 01 00:22:42
  TRACK 19 AUDIO
    TITLE "4:cjc091_1624"
    INDEX 01 00:22:60
  TRACK 20 AUDIO
    TITLE "0:"
    INDEX 01 00:26:03
  TRACK 21 AUDIO
    TITLE "2:cjc091_1625"
    INDEX 01 00:27:22
  TRACK 22 AUDIO
    TITLE "0:"
    INDEX 01 00:29:27
  TRACK 23 AUDIO
    TITLE "3:cjc091_1626"
    INDEX 01 00:29:31
  TRACK 24 AUDIO
    TITLE "0:"
    INDEX 01 00:31:16
  TRACK 25 AUDIO
    TITLE "4:cjc091_1627"
    INDEX 01 00:31:37
  TRACK 26 AUDIO
    TITLE "0:"
    INDEX 01 00:34:34
  TRACK 27 AUDIO
    TITLE "2:cjc091_1628"
    INDEX 01 00:35:43
  TRACK 28 AUDIO
    TITLE "0:"
    INDEX 01 00:36:64
  TRACK 29 AUDIO
    TITLE "3:cjc091_1629"
    INDEX 01 00:37:03
  TRACK 30 AUDIO
    TITLE "0:"
    INDEX 01 00:38:63
  TRACK 31 AUDIO
    TITLE "4:cjc091_1630"
    INDEX 01 00:39:00
  TRACK 32 AUDIO
    TITLE "0:"
    INDEX 01 00:41:47
  TRACK 33 AUDIO
    TITLE "2:cjc091_1631"
    INDEX 01 00:42:61
  TRACK 34 AUDIO
    TITLE "0:"
    INDEX 01 00:44:36
  TRACK 35 AUDIO
    TITLE "3:cjc091_1632"
    INDEX 01 00:44:44
  TRACK 36 AUDIO
    TITLE "0:"
    INDEX 01 00:46:41
  TRACK 37 AUDIO
    TITLE "4:cjc091_1633"
    INDEX 01 00:46:58
  TRACK 38 AUDIO
    TITLE "0:"
    INDEX 01 00:49:43
  TRACK 39 AUDIO
    TITLE "2:cjc091_1634"
    INDEX 01 00:50:50
  TRACK 40 AUDIO
    TITLE "0:"
    INDEX 01 00:52:20
  TRACK 41 AUDIO
    TITLE "3:cjc091_1635"
    INDEX 01 00:52:22
  TRACK 42 AUDIO
    TITLE "0:"
    INDEX 01 00:53:49
  TRACK 43 AUDIO
    TITLE "4:cjc091_1636"
    INDEX 01 00:53:72
  TRACK 44 AUDIO
    TITLE "0:"
    INDEX 01 00:56:41
  TRACK 45 AUDIO
    TITLE "2:cjc091_1637"
    INDEX 01 00:57:46
  TRACK 46 AUDIO
    TITLE "0:"
    INDEX 01 00:59:02
  TRACK 47 AUDIO
    TITLE "3:cjc091_1638"
    INDEX 01 00:59:06
  TRACK 48 AUDIO
    TITLE "0:"
    INDEX 01 01:01:11
  TRACK 49 AUDIO
    TITLE "4:cjc091_1639"
    INDEX 01 01:01:29
  TRACK 50 AUDIO
    TITLE "0:"
    INDEX 01 01:04:37
  TRACK 51 AUDIO
    TITLE "2:cjc091_1640"
    INDEX 01 01:05:46
  TRACK 52 AUDIO
    TITLE "0:"
    INDEX 01 01:06:53
  TRACK 53 AUDIO
    TITLE "3:cjc091_1641"
    INDEX 01 01:06:63
  TRACK 54 AUDIO
    TITLE "0:"
    INDEX 01 01:08:21
  TRACK 55 AUDIO
    TITLE "4:cjc091_1642"
    INDEX 01 01:08:42
  TRACK 56 AUDIO
    TITLE "0:"
    INDEX 01 01:12:30
  TRACK 57 AUDIO
    TITLE "2:cjc091_1643"
    INDEX 01 01:13:38
  TRACK 58 AUDIO
    TITLE "0:"
    INDEX 01 01:15:27
  TRACK 59 AUDIO
    TITLE "3:cjc091_1644"
    INDEX 01 01:15:31
  TRACK 60 AUDIO
    TITLE "0:"
    INDEX 01 01:17:32
  TRACK 61 AUDIO
    TITLE "4:cjc091_1645"
    INDEX 01 01:17:47
  TRACK 62 AUDIO
    TITLE "0:"
    INDEX 01 01:21:23
  TRACK 63 AUDIO
    TITLE "2:cjc091_1646"
    INDEX 01 01:22:25
  TRACK 64 AUDIO
    TITLE "0:"
    INDEX 01 01:23:42
  TRACK 65 AUDIO
    TITLE "3:cjc091_1647"
    INDEX 01 01:23:58
  TRACK 66 AUDIO
    TITLE "0:"
    INDEX 01 01:25:43
  TRACK 67 AUDIO
    TITLE "4:cjc091_1648"
    INDEX 01 01:25:66
  TRACK 68 AUDIO
    TITLE "0:"
    INDEX 01 01:29:43
  TRACK 69 AUDIO
    TITLE "2:cjc091_1649"
    INDEX 01 01:30:52
  TRACK 70 AUDIO
    TITLE "0:"
    INDEX 01 01:33:05
  TRACK 71 AUDIO
    TITLE "3:cjc091_1650"
    INDEX 01 01:33:25
  TRACK 72 AUDIO
    TITLE "0:"
    INDEX 01 01:35:18
  TRACK 73 AUDIO
    TITLE "4:cjc091_1651"
    INDEX 01 01:35:33
  TRACK 74 AUDIO
    TITLE "0:"
    INDEX 01 01:39:51
  TRACK 75 AUDIO
    TITLE "2:cjc091_1652"
    INDEX 01 01:40:58
  TRACK 76 AUDIO
    TITLE "0:"
    INDEX 01 01:42:57
  TRACK 77 AUDIO
    TITLE "3:cjc091_1653"
    INDEX 01 01:43:02
  TRACK 78 AUDIO
    TITLE "0:"
    INDEX 01 01:44:72
  TRACK 79 AUDIO
    TITLE "4:cjc091_1654"
    INDEX 01 01:45:14
  TRACK 80 AUDIO
    TITLE "0:"
    INDEX 01 01:49:22
  TRACK 81 AUDIO
    TITLE "2:cjc091_1655"
    INDEX 01 01:50:29
  TRACK 82 AUDIO
    TITLE "0:"
    INDEX 01 01:52:24
  TRACK 83 AUDIO
    TITLE "3:cjc091_1656"
    INDEX 01 01:52:32
  TRACK 84 AUDIO
    TITLE "0:"
    INDEX 01 01:54:33
  TRACK 85 AUDIO
    TITLE "4:cjc091_1657"
    INDEX 01 01:54:50
  TRACK 86 AUDIO
    TITLE "0:"
    INDEX 01 01:57:45
  TRACK 87 AUDIO
    TITLE "2:cjc091_1658"
    INDEX 01 01:58:58
  TRACK 88 AUDIO
    TITLE "0:"
    INDEX 01 02:00:10
  TRACK 89 AUDIO
    TITLE "3:cjc091_1659"
    INDEX 01 02:00:24
  TRACK 90 AUDIO
    TITLE "0:"
    INDEX 01 02:02:13
  TRACK 91 AUDIO
    TITLE "4:cjc091_1660"
    INDEX 01 02:02:32
  TRACK 92 AUDIO
    TITLE "0:"
    INDEX 01 02:06:48
